<svg width="148" height="32" viewBox="0 0 148 32" fill="none" xmlns="http://www.w3.org/2000/svg">
<path d="M34.4285 16.1267C34.4285 18.5271 33.4853 20.4628 31.6058 21.941C30.1276 23.1095 28.5016 23.6938 26.7277 23.6938C24.623 23.6938 22.7998 22.9336 21.2653 21.4201C19.7308 19.9067 18.9635 18.1188 18.9635 16.0563C18.9635 13.9023 19.7308 12.0721 21.2653 10.5587C22.7998 9.0453 24.6582 8.29211 26.8333 8.29211C28.9169 8.29211 30.7048 9.05938 32.1971 10.5939C33.6824 12.1355 34.4285 13.9798 34.4285 16.1267ZM29.3533 16.1619C29.3533 13.3814 29.1632 11.4738 28.7831 10.4461C28.3608 9.30575 27.678 8.72854 26.7418 8.72854C25.876 8.72854 25.1932 9.32687 24.7004 10.5306C24.2077 11.7272 23.9683 13.3814 23.9683 15.4932C23.9683 18.4285 24.2569 20.5121 24.8342 21.751C25.2987 22.7365 25.9604 23.2292 26.8051 23.2292C27.854 23.2292 28.5438 22.6027 28.8746 21.3498C29.1984 20.1531 29.3533 18.4285 29.3533 16.1619Z" fill="white" fill-opacity="0.9"/>
<path d="M52.5896 15.7121C52.5896 17.9928 51.942 19.8933 50.6468 21.4138C49.3516 22.9343 47.7326 23.6945 45.7898 23.6945C44.3115 23.6945 43.129 23.1102 42.235 21.9417V29.4807C42.235 30.1072 42.2702 30.5013 42.3335 30.6703C42.3969 30.8392 42.5517 30.9448 42.784 30.987C43.0163 31.0293 43.6076 31.0645 44.5579 31.0856C44.8043 31.0856 44.9239 31.1912 44.9239 31.4094C44.9239 31.5783 44.7761 31.6628 44.4875 31.6628C44.4664 31.6628 44.3538 31.6628 44.1496 31.6628C43.9455 31.6628 43.7554 31.6628 43.5795 31.6628H40.1866C39.9402 31.6628 39.6023 31.6628 39.18 31.6628C38.7506 31.6628 38.2579 31.6628 37.7018 31.6628H36.0194C35.5267 31.6628 35.2803 31.5713 35.2803 31.3953C35.2803 31.2405 35.6815 31.163 36.491 31.163C37.1598 31.163 37.5399 31.0926 37.6173 30.9589C37.6947 30.8251 37.737 30.3958 37.737 29.6778V12.7345C37.737 12.5797 37.737 12.4248 37.737 12.2629C37.737 12.1291 37.737 12.0376 37.737 11.9954V11.0522C37.7581 10.5805 37.5821 10.2919 37.202 10.1793C37.019 10.1089 36.6389 10.0808 36.0617 10.0808H35.407C35.224 10.0808 35.1395 10.0104 35.1395 9.87662C35.1395 9.6936 35.2733 9.63025 35.5408 9.67248C37.92 9.60209 40.0036 9.15862 41.7986 8.328C41.8901 8.46175 41.9464 8.64477 41.9675 8.87002L42.0379 9.70768L42.0731 10.2778C42.6785 9.5317 43.2697 9.01784 43.854 8.74331C44.4382 8.46879 45.1914 8.328 46.1065 8.328C47.9648 8.328 49.5135 9.02488 50.7453 10.4257C51.9701 11.8265 52.5896 13.5863 52.5896 15.7121ZM47.6481 15.5783C47.6481 11.3056 46.6908 9.1727 44.7761 9.1727C43.9314 9.1727 43.2134 9.57393 42.6362 10.3834C42.3687 10.7636 42.235 11.4041 42.235 12.2981V18.9079C42.235 20.3368 42.411 21.3082 42.77 21.8291C43.2838 22.5893 43.9737 22.9694 44.8395 22.9694C46.7119 22.9554 47.6481 20.4987 47.6481 15.5783Z" fill="white" fill-opacity="0.9"/>
<path d="M88.7919 10.813C88.7919 11.4606 88.6018 11.9956 88.2217 12.4109C87.8416 12.8262 87.3489 13.0304 86.7435 13.0304C85.5328 13.0304 84.9274 12.4672 84.9274 11.348C84.9274 10.9679 85.0752 10.5878 85.3638 10.2077C85.4342 10.1162 85.4624 10.0387 85.4624 9.97537C85.4624 9.77123 85.3216 9.67268 85.033 9.67268C84.2798 9.67268 83.7026 10.264 83.3084 11.4536C83.0902 12.1223 82.9775 13.7695 82.9775 16.381V18.8306V21.78C82.9775 22.3854 83.2802 22.7092 83.8856 22.7514C84.2446 22.7725 84.6669 22.7866 85.1667 22.7866C85.4131 22.8077 85.5328 22.8852 85.5328 23.0189C85.5328 23.2019 85.4342 23.2864 85.2301 23.2864H84.5543C84.3502 23.2864 83.3788 23.2864 81.626 23.2864C81.7175 23.2864 81.2107 23.2864 80.1126 23.2864H78.4654H77.1843C76.9591 23.2864 76.6986 23.2864 76.41 23.2864C76.1636 23.2864 76.0369 23.216 76.0369 23.0682C76.0369 22.9204 76.1918 22.85 76.5086 22.85C77.4307 22.8289 77.9797 22.7303 78.1698 22.5614C78.3599 22.3924 78.4584 21.8926 78.4584 21.0691L78.4232 12.0097C78.4232 11.2495 78.3176 10.7215 78.1064 10.4329C77.8953 10.1443 77.4166 9.96129 76.6775 9.89794C76.0932 9.8557 75.7624 9.82755 75.685 9.80643C75.6075 9.78531 75.5653 9.71492 75.5653 9.58821C75.5653 9.46151 75.6568 9.39816 75.8328 9.39816C76.0369 9.39816 76.227 9.39816 76.403 9.39816H77.0717C78.7963 9.39816 80.6617 9.03916 82.6537 8.32117C82.7664 8.77167 82.8227 9.28553 82.8227 9.86978V11.2847C83.2521 10.2006 83.7167 9.43335 84.2164 8.98989C84.7233 8.54642 85.3779 8.32117 86.1874 8.32117C86.9476 8.32117 87.5741 8.55346 88.0528 9.02508C88.5455 9.50374 88.7919 10.1021 88.7919 10.813Z" fill="white" fill-opacity="0.9"/>
<path d="M103.483 19.1542C103.483 19.647 103.194 20.2946 102.61 21.1041C101.357 22.8287 99.7167 23.6945 97.6964 23.6945C95.4298 23.6945 93.5715 22.9765 92.1144 21.5405C90.6573 20.1045 89.9323 18.2673 89.9323 16.0288C89.9323 13.8326 90.6362 12.0024 92.051 10.5313C93.4659 9.06008 95.2257 8.328 97.3304 8.328C98.7664 8.328 99.9842 8.64477 100.998 9.27125C102.117 9.96813 102.849 10.9677 103.18 12.2629C103.271 12.6641 103.335 13.1498 103.384 13.7059C102.87 13.7622 100.794 13.8115 97.1615 13.8397C96.5983 13.8397 95.8944 13.8608 95.0427 13.9101C94.9723 14.7125 94.9441 15.3953 94.9441 15.9514C94.9441 18.5629 95.4932 20.4213 96.5913 21.5123C97.2389 22.16 98.0343 22.4838 98.9776 22.4838C99.7589 22.4838 100.519 22.2163 101.251 21.6742C101.976 21.1393 102.532 20.4424 102.912 19.5907C103.088 19.1613 103.236 18.9501 103.349 18.9501C103.44 18.9571 103.483 19.0205 103.483 19.1542ZM99.2451 13.2695C99.2662 11.5519 99.1465 10.3623 98.879 9.6936C98.6115 9.02488 98.1399 8.69404 97.4641 8.69404C96.0986 8.69404 95.3102 10.2215 95.1131 13.2695C95.5847 13.2695 96.5702 13.2695 98.0695 13.2695C98.52 13.2695 98.9142 13.2695 99.2451 13.2695Z" fill="white" fill-opacity="0.9"/>
<path d="M119.124 8.93334C119.124 9.0882 119.081 9.18675 118.99 9.22195C118.898 9.25714 118.589 9.27122 118.047 9.27122C117.441 9.27122 117.082 9.30642 116.97 9.36977L116.765 9.73581L116.364 10.9113C116.181 11.4463 115.78 12.5374 115.153 14.1705C115.111 14.3042 114.619 15.6839 113.675 18.3095C111.458 24.518 110.022 28.2769 109.374 29.5721C108.565 31.1841 107.537 31.9936 106.277 31.9936C105.559 31.9936 104.982 31.7824 104.545 31.3531C104.109 30.9237 103.891 30.3676 103.891 29.6707C103.891 28.5726 104.496 28.0235 105.707 28.0235C106.108 28.0235 106.432 28.1573 106.685 28.4248C106.798 28.5374 106.988 28.8471 107.256 29.368C107.41 29.5933 107.629 29.7059 107.896 29.7059C108.347 29.7059 108.776 29.3328 109.191 28.5796C109.607 27.8264 110.17 26.4116 110.888 24.328C110.712 23.969 110.36 23.1736 109.846 21.9417C109.17 20.2382 108.276 18.0068 107.15 15.2475C106.882 14.5787 106.277 13.1076 105.341 10.841C105.024 10.0455 104.757 9.57391 104.531 9.42608C104.306 9.27826 103.792 9.18675 102.983 9.16563C102.715 9.16563 102.582 9.0882 102.582 8.93334C102.582 8.77848 102.715 8.70105 102.983 8.70105H103.588C103.926 8.70105 104.426 8.70105 105.102 8.70105C105.77 8.70105 106.291 8.70105 106.65 8.70105H110.754C110.888 8.70105 111.043 8.70105 111.226 8.70105C111.472 8.70105 111.592 8.77848 111.592 8.93334C111.592 9.13748 111.254 9.22195 110.585 9.20083C109.909 9.17971 109.578 9.32753 109.578 9.63726C109.578 9.86251 109.67 10.2074 109.846 10.6791C110.092 11.3055 110.226 11.6786 110.247 11.7912C111.345 14.8392 112.239 17.1621 112.936 18.753C115.02 13.4384 116.062 10.4116 116.062 9.67245C116.062 9.42608 115.801 9.30642 115.287 9.30642C114.21 9.30642 113.675 9.20787 113.675 9.00373C113.675 8.7996 113.809 8.70105 114.077 8.70105C114.302 8.70105 114.527 8.71513 114.752 8.73625C115.175 8.77848 115.759 8.80664 116.498 8.80664C116.589 8.80664 116.92 8.78552 117.491 8.75736C118.061 8.72217 118.434 8.70809 118.617 8.70809H118.821C119.018 8.70105 119.124 8.77848 119.124 8.93334Z" fill="white" fill-opacity="0.9"/>
<path d="M136.215 23.0536C136.215 23.2366 135.933 23.3211 135.377 23.3211C135.335 23.3211 135.039 23.3211 134.504 23.3211C133.969 23.3211 133.181 23.3211 132.153 23.3211H131.076H128.183C127.866 23.3211 127.711 23.2366 127.711 23.0677C127.711 22.9199 127.845 22.8495 128.106 22.8495H128.373C128.943 22.8495 129.281 22.7791 129.38 22.6313C129.478 22.4835 129.527 21.9837 129.527 21.1249V14.5996C129.527 12.1922 129.373 10.7492 129.063 10.2705C128.795 9.86225 128.324 9.65811 127.641 9.65811C126.958 9.65811 126.395 9.86929 125.952 10.2987C125.508 10.721 125.29 11.263 125.29 11.9106V22.0752C125.332 22.3427 125.431 22.5186 125.579 22.5961C125.726 22.6735 126.085 22.7228 126.67 22.7439C126.846 22.7439 126.937 22.8143 126.937 22.941C126.937 23.0747 126.86 23.1522 126.705 23.1733C126.55 23.1944 125.987 23.2085 125.022 23.2085C124.058 23.2085 123.263 23.2226 122.636 23.2437C121.404 23.2859 120.144 23.3141 118.87 23.3141C118.603 23.3141 118.469 23.2366 118.469 23.0818C118.469 22.9058 118.814 22.8143 119.497 22.8143C120.179 22.8143 120.581 22.6806 120.693 22.4131L120.792 21.9414V14.2336C120.792 12.0655 120.771 10.9322 120.722 10.8477C120.651 10.5099 120.348 10.3409 119.813 10.3409C119.525 10.3409 119.264 10.3409 119.039 10.3409H118.673C118.314 10.3409 118.131 10.2705 118.131 10.1227C118.131 9.97487 118.265 9.89041 118.532 9.86929C121.031 9.75666 123.03 9.22872 124.523 8.28548C124.699 8.19397 124.825 8.15173 124.889 8.15173C125.065 8.15173 125.156 8.33475 125.156 8.68671C125.156 9.67219 125.156 10.3128 125.156 10.6014C126.346 9.05275 127.866 8.27844 129.732 8.27844C131.66 8.27844 132.913 8.94716 133.498 10.2987C133.744 10.8618 133.892 11.4883 133.948 12.1852C134.004 12.882 134.033 14.318 134.033 16.4861V21.3642C134.033 22.0611 134.089 22.4694 134.201 22.589C134.314 22.7157 134.68 22.7721 135.293 22.7721C135.905 22.7861 136.215 22.8776 136.215 23.0536Z" fill="white" fill-opacity="0.9"/>
<path d="M147.372 18.6189C147.372 20.1182 146.914 21.336 145.999 22.2651C145.084 23.1943 143.901 23.6589 142.444 23.6589C141.726 23.6589 140.882 23.4759 139.896 23.1239C139.094 22.8353 138.566 22.6875 138.319 22.6875C137.897 22.6875 137.615 22.8494 137.482 23.1732C137.348 23.497 137.249 23.6589 137.179 23.6589C137.045 23.6589 136.975 23.5815 136.975 23.4196C136.975 23.2858 136.996 23.0676 137.031 22.779C137.087 22.3496 137.116 21.6035 137.116 20.5476C137.116 20.5054 137.116 20.3927 137.116 20.2097C137.116 20.0267 137.116 19.7803 137.116 19.4636V18.8864C137.116 18.64 137.172 18.5133 137.285 18.5133C137.418 18.5133 137.517 18.6822 137.587 19.0201C137.791 20.2097 138.362 21.2022 139.298 21.9977C140.234 22.7931 141.283 23.1943 142.444 23.1943C143.183 23.1943 143.775 22.962 144.232 22.5045C144.69 22.0469 144.915 21.4486 144.915 20.7025C144.915 20.1182 144.704 19.6255 144.274 19.2242C143.958 18.9356 143.12 18.5625 141.754 18.112C140.072 17.5489 138.854 16.8732 138.108 16.0777C137.355 15.2823 136.982 14.2687 136.982 13.0368C136.982 11.7135 137.432 10.5942 138.326 9.6721C139.22 8.74997 140.318 8.29242 141.621 8.29242C142.113 8.29242 142.965 8.44728 144.176 8.76405C144.359 8.80628 144.493 8.83444 144.577 8.83444C145.07 8.83444 145.443 8.53175 145.689 7.92639C145.732 7.81376 145.788 7.75745 145.858 7.75745C146.013 7.75745 146.091 7.89119 146.091 8.15868L146.055 8.79924C146.034 8.89075 146.02 9.04561 146.02 9.27086C146.02 10.193 146.076 11.1292 146.189 12.0936V12.2625C146.189 12.4455 146.119 12.53 145.985 12.53C145.872 12.53 145.781 12.4314 145.717 12.2273C145.07 9.93958 143.747 8.79924 141.747 8.79924C141.008 8.79924 140.396 9.00338 139.917 9.40461C139.432 9.80584 139.192 10.3267 139.192 10.9532C139.192 11.5375 139.396 11.995 139.798 12.3329C140.199 12.6708 140.987 13.0509 142.149 13.4732C144.19 14.1912 145.57 14.9092 146.288 15.6272C147.013 16.3452 147.372 17.3377 147.372 18.6189Z" fill="white" fill-opacity="0.9"/>
<path d="M14.6837 21.9134V15.2755H14.6907V2.34457C14.6907 1.07752 15.7114 0.0638816 16.9714 0.0286858C14.93 0.0286858 13.0717 0.73964 11.6146 1.92926C10.1575 0.725562 8.28509 0.00756836 6.23669 0.00756836C7.50374 0.035725 8.51738 1.0564 8.51738 2.32345V15.7401C8.51738 20.6745 12.5297 24.6517 17.4289 24.6517C15.9155 24.6587 14.6837 23.4268 14.6837 21.9134Z" fill="white" fill-opacity="0.9"/>
<path d="M0 6.18827C0 2.76724 2.71711 0.0219727 6.13814 0.0219727H0V6.18827Z" fill="white" fill-opacity="0.9"/>
<path d="M17.0277 0.0151367C20.4206 0.0151367 23.2292 2.76041 23.2292 6.18144V0.0151367H17.0277Z" fill="white" fill-opacity="0.9"/>
<path d="M74.3828 18.1962C74.2913 14.93 71.4193 12.3044 68.1532 12.3044H66.9424C70.5183 12.3044 73.3551 9.40431 73.1088 5.82842C73.0243 2.47074 70.1241 0 66.7313 0H64.4506C65.7458 0 66.7313 1.04883 66.7313 2.28069V9.93225C66.7313 11.1993 65.8091 12.3044 64.5702 12.3044C63.2117 12.4311 62.1628 11.3823 62.1628 10.0519V8.41883C62.1628 8.10207 62.1417 7.79235 62.1065 7.48262V2.32996C62.1065 1.06291 63.1272 0.0492741 64.3872 0.0140783C62.3599 0.0140783 60.5157 0.717994 59.0656 1.89353C57.6085 0.710955 55.7361 0 53.6807 0C54.9125 0 56.0247 1.04883 56.0247 2.28069V7.32776C55.9754 7.70084 55.9402 8.08095 55.9402 8.4681V21.9199C55.9402 23.4333 54.7084 24.6652 53.1949 24.6652C55.4264 24.6652 57.4677 23.8346 59.0304 22.476C60.5861 23.8487 62.6134 24.6793 64.8448 24.6793C63.4229 24.6793 62.1628 23.4122 62.1628 21.9059V15.3383C62.1628 13.9164 63.3384 12.5649 64.7814 12.5649C66.3511 12.5649 67.59 13.7967 67.59 15.282V21.9129C67.59 23.4263 66.4497 24.6863 64.8448 24.6863H68.2376C71.7854 24.6793 74.594 21.7158 74.3828 18.1962Z" fill="white" fill-opacity="0.9"/>
</svg>
